<svg width="12" height="14" viewBox="0 0 12 14" fill="none" xmlns="http://www.w3.org/2000/svg">
<path fill-rule="evenodd" clip-rule="evenodd" d="M0 6.33331C0 3.0196 2.68629 0.333313 6 0.333313C9.31371 0.333313 12 3.0196 12 6.33331C12 8.35091 10.7935 10.0612 9.4033 11.266L7.10902 13.2544C6.47255 13.806 5.52745 13.806 4.89098 13.2544L2.5967 11.266C1.20651 10.0612 0 8.35091 0 6.33331ZM6 7.66665C6.73638 7.66665 7.33333 7.06969 7.33333 6.33331C7.33333 5.59693 6.73638 4.99998 6 4.99998C5.26362 4.99998 4.66667 5.59693 4.66667 6.33331C4.66667 7.06969 5.26362 7.66665 6 7.66665Z" fill="#ABAFB9"/>
</svg>
