<svg width="136" height="24" viewBox="0 0 136 24" fill="none" xmlns="http://www.w3.org/2000/svg">
<path d="M36.8253 13.7474V23.6693H33V1.09141H36.7408V9.61323H36.931C37.3114 8.65779 37.8996 7.90445 38.6957 7.35324C39.4988 6.79467 40.5203 6.51539 41.7602 6.51539C42.8873 6.51539 43.8701 6.7616 44.7084 7.25402C45.5467 7.74644 46.1948 8.4667 46.6527 9.41479C47.1177 10.3629 47.3502 11.5204 47.3502 12.8875V23.6693H43.5249V13.5048C43.5249 12.3656 43.2431 11.48 42.6795 10.848C42.123 10.2085 41.341 9.88884 40.3336 9.88884C39.6573 9.88884 39.0514 10.0432 38.516 10.3519C37.9877 10.6532 37.572 11.0905 37.2691 11.6638C36.9732 12.237 36.8253 12.9316 36.8253 13.7474Z" fill="#FFF"/>
<path d="M56.544 24C54.9589 24 53.5852 23.6362 52.4228 22.9086C51.2604 22.181 50.3587 21.1631 49.7176 19.8548C49.0836 18.5466 48.7666 17.0179 48.7666 15.2687C48.7666 13.5195 49.0836 11.9871 49.7176 10.6716C50.3587 9.35599 51.2604 8.3344 52.4228 7.6068C53.5852 6.87919 54.9589 6.51539 56.544 6.51539C58.1291 6.51539 59.5028 6.87919 60.6652 7.6068C61.8276 8.3344 62.7258 9.35599 63.3598 10.6716C64.0009 11.9871 64.3214 13.5195 64.3214 15.2687C64.3214 17.0179 64.0009 18.5466 63.3598 19.8548C62.7258 21.1631 61.8276 22.181 60.6652 22.9086C59.5028 23.6362 58.1291 24 56.544 24ZM56.5651 20.8029C57.4246 20.8029 58.1432 20.5567 58.7208 20.0643C59.2985 19.5645 59.7282 18.8957 60.01 18.0579C60.2989 17.22 60.4433 16.2866 60.4433 15.2577C60.4433 14.2214 60.2989 13.2843 60.01 12.4465C59.7282 11.6013 59.2985 10.9288 58.7208 10.429C58.1432 9.92926 57.4246 9.67937 56.5651 9.67937C55.6845 9.67937 54.9519 9.92926 54.3672 10.429C53.7895 10.9288 53.3563 11.6013 53.0674 12.4465C52.7856 13.2843 52.6447 14.2214 52.6447 15.2577C52.6447 16.2866 52.7856 17.22 53.0674 18.0579C53.3563 18.8957 53.7895 19.5645 54.3672 20.0643C54.9519 20.5567 55.6845 20.8029 56.5651 20.8029Z" fill="#FFF"/>
<path d="M65.7827 23.6693V6.73587H69.439V9.61323H69.6292C69.9673 8.64309 70.5274 7.88608 71.3094 7.34221C72.0913 6.791 73.0248 6.51539 74.1096 6.51539C75.2086 6.51539 76.135 6.79467 76.8888 7.35324C77.6496 7.90445 78.185 8.65779 78.495 9.61323H78.6641C79.0234 8.67248 79.6292 7.92283 80.4816 7.36426C81.3411 6.79835 82.3591 6.51539 83.5355 6.51539C85.029 6.51539 86.2478 7.00781 87.1918 7.99265C88.1358 8.97749 88.6078 10.4143 88.6078 12.3032V23.6693H84.7719V12.9205C84.7719 11.8695 84.5042 11.1015 83.9688 10.6164C83.4334 10.124 82.7782 9.87781 82.0033 9.87781C81.0804 9.87781 80.3584 10.1791 79.837 10.7818C79.3228 11.3771 79.0656 12.1525 79.0656 13.1079V23.6693H75.3143V12.7552C75.3143 11.8806 75.0607 11.1824 74.5535 10.6605C74.0533 10.1387 73.3981 9.87781 72.588 9.87781C72.0385 9.87781 71.5383 10.0248 71.0874 10.3188C70.6366 10.6054 70.2773 11.0133 70.0096 11.5425C69.7419 12.0643 69.6081 12.6743 69.6081 13.3725V23.6693H65.7827Z" fill="#FFF"/>
<path d="M90.7031 23.6693V6.73587H94.3593V9.61323H94.5496C94.8877 8.64309 95.4478 7.88608 96.2297 7.34221C97.0117 6.791 97.9451 6.51539 99.03 6.51539C100.129 6.51539 101.055 6.79467 101.809 7.35324C102.57 7.90445 103.105 8.65779 103.415 9.61323H103.584C103.944 8.67248 104.55 7.92283 105.402 7.36426C106.261 6.79835 107.279 6.51539 108.456 6.51539C109.949 6.51539 111.168 7.00781 112.112 7.99265C113.056 8.97749 113.528 10.4143 113.528 12.3032V23.6693H109.692V12.9205C109.692 11.8695 109.425 11.1015 108.889 10.6164C108.354 10.124 107.699 9.87781 106.924 9.87781C106.001 9.87781 105.279 10.1791 104.757 10.7818C104.243 11.3771 103.986 12.1525 103.986 13.1079V23.6693H100.235V12.7552C100.235 11.8806 99.9811 11.1824 99.4738 10.6605C98.9737 10.1387 98.3185 9.87781 97.5084 9.87781C96.9589 9.87781 96.4587 10.0248 96.0078 10.3188C95.557 10.6054 95.1977 11.0133 94.93 11.5425C94.6623 12.0643 94.5284 12.6743 94.5284 13.3725V23.6693H90.7031Z" fill="#FFF"/>
<path d="M115.623 23.6693V6.73587H119.449V23.6693H115.623ZM117.547 4.33257C116.941 4.33257 116.42 4.12311 115.983 3.70418C115.546 3.2779 115.328 2.76711 115.328 2.1718C115.328 1.56913 115.546 1.05834 115.983 0.639411C116.42 0.213137 116.941 0 117.547 0C118.16 0 118.681 0.213137 119.111 0.639411C119.547 1.05834 119.766 1.56913 119.766 2.1718C119.766 2.76711 119.547 3.2779 119.111 3.70418C118.681 4.12311 118.16 4.33257 117.547 4.33257Z" fill="#FFF"/>
<path d="M128.783 24C127.155 24 125.75 23.6472 124.566 22.9417C123.39 22.2288 122.485 21.2219 121.851 19.921C121.217 18.6128 120.9 17.073 120.9 15.3018C120.9 13.5599 121.217 12.0312 121.851 10.7157C122.492 9.39274 123.386 8.3638 124.535 7.62885C125.683 6.88654 127.032 6.51539 128.582 6.51539C129.582 6.51539 130.526 6.68443 131.414 7.02251C132.309 7.35324 133.098 7.86771 133.781 8.56592C134.471 9.26412 135.014 10.1534 135.408 11.2338C135.803 12.3068 136 13.5857 136 15.0703V16.294H122.696V13.604H132.333C132.326 12.8397 132.168 12.1599 131.858 11.5645C131.548 10.9619 131.114 10.4878 130.558 10.1424C130.008 9.79697 129.367 9.62425 128.635 9.62425C127.853 9.62425 127.166 9.82269 126.574 10.2196C125.982 10.6091 125.521 11.1236 125.19 11.763C124.866 12.395 124.7 13.0896 124.693 13.8466V16.1948C124.693 17.1796 124.866 18.0248 125.211 18.7304C125.556 19.4286 126.039 19.9651 126.659 20.3399C127.279 20.7074 128.004 20.8911 128.835 20.8911C129.392 20.8911 129.896 20.8103 130.347 20.6486C130.797 20.4796 131.188 20.2333 131.52 19.91C131.851 19.5866 132.101 19.186 132.27 18.7083L135.841 19.1272C135.616 20.1121 135.186 20.972 134.552 21.7069C133.925 22.4345 133.122 23.0005 132.143 23.4047C131.164 23.8016 130.044 24 128.783 24Z" fill="#FFF"/>
<path fill-rule="evenodd" clip-rule="evenodd" d="M21.5203 7.77126L13.8537 1.80788C12.4698 0.730708 10.5314 0.730708 9.14633 1.80788L1.47967 7.77126C0.545611 8.49704 0 9.61382 0 10.797V20.167C0 22.2843 1.71606 24.0003 3.83333 24.0003H19.1667C21.2839 24.0003 23 22.2843 23 20.167V10.797C23 9.61382 22.4544 8.49704 21.5203 7.77126Z" fill="#A3E27A"/>
<path fill-rule="evenodd" clip-rule="evenodd" d="M5.48586 14.456C5.98509 13.9572 6.79414 13.9576 7.29291 14.4568C9.61492 16.7809 13.3826 16.7815 15.7077 14.4564C16.2067 13.9574 17.0157 13.9574 17.5147 14.4564C18.0137 14.9554 18.0137 15.7644 17.5147 16.2634C14.1921 19.5861 8.8057 19.5867 5.48504 16.263C4.98627 15.7638 4.98663 14.9548 5.48586 14.456Z" fill="white"/>
</svg>
